<?xml version="1.0" standalone="no"?>
<!DOCTYPE svg PUBLIC "-//W3C//DTD SVG 20010904//EN"
 "http://www.w3.org/TR/2001/REC-SVG-20010904/DTD/svg10.dtd">
<svg version="1.0" xmlns="http://www.w3.org/2000/svg"
 width="1024.000000pt" height="1024.000000pt" viewBox="0 0 1024.000000 1024.000000"
 preserveAspectRatio="xMidYMid meet">

<g transform="translate(0.000000,1024.000000) scale(0.100000,-0.100000)"
fill="#000000" stroke="none">
<path d="M4370 8205 l0 -145 253 -2 252 -3 3 -497 2 -498 225 0 225 0 0 500 0
500 250 0 250 0 0 129 c0 71 3 136 6 145 6 15 -63 16 -730 16 l-736 0 0 -145z"/>
<path d="M6815 7862 c-38 -58 -134 -198 -212 -311 -78 -114 -165 -241 -195
-284 -29 -42 -102 -147 -161 -232 -60 -86 -107 -160 -105 -165 5 -14 368 -261
376 -256 5 3 69 97 143 210 73 113 138 206 143 206 7 0 98 -63 391 -270 44
-31 102 -71 128 -89 56 -38 40 -50 143 102 63 93 65 99 48 113 -11 8 -77 54
-149 102 -151 103 -398 273 -404 277 -3 3 30 51 124 183 l17 23 48 -35 c121
-87 609 -416 616 -416 9 0 151 200 159 223 3 7 -30 35 -73 62 -42 28 -135 91
-207 141 -536 373 -756 524 -758 523 -1 0 -33 -48 -72 -107z"/>
<path d="M3080 7799 c-294 -215 -588 -430 -715 -522 -60 -44 -112 -82 -115
-84 -2 -2 0 -10 5 -18 98 -142 559 -785 727 -1013 l39 -53 37 29 c35 28 696
508 910 662 56 40 102 78 102 83 0 13 -151 237 -159 237 -3 0 -41 -26 -84 -58
-100 -74 -395 -289 -506 -369 -108 -79 -109 -79 -127 -57 -31 40 -124 174
-124 178 0 7 302 227 513 375 42 29 77 59 77 65 0 6 -17 34 -38 61 -20 28 -55
76 -76 107 -39 57 -39 57 -62 40 -31 -23 -218 -160 -329 -241 -49 -36 -122
-89 -161 -117 -39 -29 -76 -54 -82 -56 -10 -3 -132 158 -132 174 0 7 75 61
483 352 108 78 196 146 195 151 -6 20 -153 224 -163 224 -5 0 -102 -67 -215
-150z"/>
<path d="M4910 6920 c-185 -17 -397 -70 -584 -145 -454 -185 -844 -546 -1056
-980 -407 -830 -200 -1843 495 -2423 382 -318 799 -477 1291 -489 271 -7 476
23 728 108 468 158 895 520 1126 954 221 417 291 895 199 1360 -26 131 -108
374 -164 486 -303 603 -877 1016 -1551 1118 -101 15 -371 21 -484 11z m401
-195 c233 -27 433 -87 639 -192 277 -141 541 -375 712 -633 213 -321 322 -746
290 -1131 -37 -442 -204 -818 -496 -1117 -272 -278 -562 -448 -908 -531 -275
-67 -588 -69 -863 -6 -445 101 -873 395 -1120 770 -166 252 -257 486 -295 765
-17 121 -15 394 5 521 65 439 285 836 618 1117 405 342 908 497 1418 437z"/>
<path d="M4849 6526 c-122 -19 -181 -33 -294 -73 -218 -75 -405 -190 -582
-357 -183 -173 -330 -394 -418 -631 -125 -335 -135 -720 -28 -1060 79 -252
209 -461 413 -666 192 -193 375 -309 620 -393 675 -230 1430 -9 1855 544 181
236 277 458 326 760 18 110 16 404 -4 520 -100 581 -513 1076 -1067 1277 -189
69 -281 85 -520 89 -143 2 -244 -1 -301 -10z m181 -522 l0 -344 -34 0 c-100 0
-439 59 -460 80 -16 16 108 251 189 358 40 54 98 120 129 145 74 64 156 118
167 111 5 -3 9 -156 9 -350z m220 324 c77 -44 204 -176 282 -293 74 -111 162
-285 151 -296 -8 -7 -156 -41 -257 -59 -32 -5 -101 -13 -152 -16 l-94 -7 0
352 c0 193 3 351 8 351 4 0 32 -14 62 -32z m-571 -56 c-94 -98 -173 -217 -245
-365 -31 -64 -57 -117 -59 -117 -42 0 -325 148 -325 170 0 10 84 84 164 144
130 97 253 161 431 221 113 39 117 34 34 -53z m903 48 c175 -58 394 -185 528
-309 l55 -51 -29 -24 c-32 -26 -238 -131 -277 -141 -22 -5 -28 3 -77 104 -64
132 -164 284 -250 381 -35 38 -59 70 -54 70 6 0 52 -14 104 -30z m-1544 -533
c64 -39 240 -125 289 -142 1 0 -9 -39 -23 -85 -36 -123 -61 -249 -74 -375 -7
-60 -15 -135 -19 -165 l-6 -55 -299 -3 -299 -2 6 87 c11 181 89 421 193 596
37 62 134 197 142 197 2 0 43 -24 90 -53z m2309 -54 c116 -174 170 -296 223
-499 22 -88 41 -254 30 -267 -3 -4 -139 -6 -301 -5 l-294 3 -7 108 c-10 145
-41 329 -78 460 -16 59 -30 109 -30 111 0 2 21 11 48 21 63 24 248 118 292
149 19 14 37 25 40 26 3 0 38 -48 77 -107z m-1781 -157 c90 -23 276 -53 377
-61 l87 -7 -2 -272 -3 -271 -330 0 -330 0 2 80 c4 133 39 336 84 488 16 54 24
67 37 63 9 -3 45 -12 78 -20z m1202 -56 c45 -146 87 -410 80 -505 l-3 -50
-330 0 -330 0 -3 271 -2 272 87 6 c108 9 304 40 398 65 39 10 73 15 77 12 3
-3 15 -35 26 -71z m-1554 -742 c3 -24 8 -81 11 -128 7 -87 38 -281 55 -335 5
-16 18 -59 29 -94 12 -35 19 -67 16 -71 -2 -4 -26 -15 -52 -25 -73 -27 -180
-83 -256 -132 l-67 -44 -28 32 c-115 135 -223 350 -272 544 -24 93 -46 255
-38 276 5 12 55 15 301 17 l296 3 5 -43z m664 32 l152 0 -2 -262 -3 -263 -40
-3 c-156 -10 -414 -55 -497 -87 -18 -7 -48 86 -83 262 -25 123 -48 340 -38
357 4 5 79 6 182 3 97 -4 245 -7 329 -7z m1468 0 l260 0 -8 -77 c-28 -273
-132 -529 -300 -745 l-29 -38 -57 37 c-70 44 -289 153 -310 153 -18 0 -14 23
22 145 32 106 63 289 71 418 9 123 8 121 53 113 20 -3 154 -6 298 -6z m-499
-92 c-8 -125 -30 -248 -69 -395 -36 -136 -32 -133 -114 -108 -77 24 -259 53
-376 61 l-108 7 0 263 0 264 337 0 336 0 -6 -92z m-817 -928 c0 -283 -2 -340
-14 -340 -27 0 -132 80 -207 157 -42 43 -101 116 -131 163 -53 81 -148 260
-148 278 0 10 92 33 220 56 103 19 137 22 218 24 l62 2 0 -340z m415 320 c143
-26 235 -52 235 -66 0 -21 -102 -214 -157 -296 -59 -88 -179 -212 -253 -262
-96 -64 -90 -85 -90 306 l0 341 103 -6 c56 -4 129 -11 162 -17z m528 -161 c54
-27 119 -64 145 -81 l46 -32 -64 -58 c-73 -68 -204 -157 -308 -211 -75 -39
-280 -117 -309 -117 -10 0 1 18 34 53 103 109 197 252 275 417 49 105 34 102
181 29z m-1542 -46 c54 -120 154 -274 239 -368 35 -38 68 -73 74 -77 25 -17
-26 -6 -122 26 -107 36 -267 115 -362 178 -78 52 -200 157 -200 171 0 24 264
163 316 166 6 1 30 -43 55 -96z"/>
<path d="M2055 2605 c-23 -9 -58 -29 -79 -47 -118 -97 -114 -311 8 -400 59
-43 82 -50 162 -51 60 0 83 5 138 31 l66 31 0 115 0 116 -67 0 c-38 0 -85 -3
-106 -7 -37 -6 -38 -7 -35 -42 l3 -36 58 -3 57 -3 0 -44 c0 -39 -4 -46 -30
-60 -41 -21 -128 -19 -166 4 -103 63 -104 237 -1 299 64 39 134 36 190 -8 l26
-20 26 34 c15 19 24 40 20 46 -29 47 -192 74 -270 45z"/>
<path d="M3130 2611 c-67 -21 -132 -75 -163 -136 -8 -17 -18 -56 -22 -87 -19
-152 99 -280 260 -281 141 -1 243 96 253 241 6 81 -17 141 -73 197 -63 63
-171 91 -255 66z m136 -90 c103 -47 131 -187 54 -275 -39 -43 -80 -60 -134
-54 -143 16 -197 200 -89 301 51 48 106 57 169 28z"/>
<path d="M4349 2613 c-8 -2 -32 -44 -54 -96 -21 -51 -69 -161 -107 -246 -37
-85 -68 -155 -68 -157 0 -2 22 -4 49 -4 l49 0 22 60 22 60 117 0 116 0 24 -60
24 -60 49 0 c26 0 48 2 48 4 0 2 -13 32 -29 67 -72 159 -125 280 -153 352 -20
52 -35 77 -46 78 -9 0 -24 2 -32 3 -8 1 -22 1 -31 -1z m69 -200 c18 -43 32
-84 32 -90 0 -9 -21 -13 -70 -13 -49 0 -70 4 -70 13 0 19 61 167 69 167 4 0
22 -35 39 -77z"/>
<path d="M7867 2606 c-49 -18 -67 -34 -84 -73 -41 -100 4 -169 137 -209 95
-29 120 -46 120 -80 0 -60 -121 -73 -198 -22 l-39 26 -26 -33 c-31 -38 -29
-41 53 -79 69 -33 176 -36 230 -8 47 25 83 94 75 142 -13 70 -52 101 -180 141
-94 29 -113 54 -77 100 25 30 94 31 151 1 23 -12 45 -22 49 -22 4 0 15 15 25
32 18 32 18 33 -3 50 -47 38 -173 57 -233 34z"/>
<path d="M2510 2360 l0 -250 181 0 180 0 -3 43 -3 42 -132 3 -133 3 0 204 0
205 -45 0 -45 0 0 -250z"/>
<path d="M3610 2359 l0 -251 158 4 c136 3 162 6 192 23 88 51 88 178 1 224
l-23 13 27 28 c59 62 34 169 -45 197 -20 7 -94 12 -172 12 l-138 1 0 -251z
m268 155 c29 -20 31 -79 2 -94 -10 -5 -54 -11 -97 -13 l-78 -2 -3 63 -3 62 78
0 c55 0 85 -5 101 -16z m1 -194 c40 -11 51 -24 51 -61 0 -49 -31 -64 -134 -64
l-91 0 -3 54 c-2 29 -1 60 2 67 6 17 122 19 175 4z"/>
<path d="M4762 2363 l3 -248 178 -3 178 -2 -3 42 -3 43 -127 3 -128 3 0 204 0
205 -50 0 -50 0 2 -247z"/>
<path d="M5477 2603 c-4 -3 -7 -116 -7 -250 l0 -243 50 0 50 0 0 100 0 100
125 0 125 0 0 39 0 39 -102 6 c-57 3 -112 5 -123 4 -18 -3 -20 4 -23 65 l-3
67 141 0 140 0 0 40 0 40 -183 0 c-101 0 -187 -3 -190 -7z"/>
<path d="M5972 2422 c3 -185 3 -189 30 -229 37 -56 103 -87 184 -86 77 1 128
25 167 79 37 53 47 127 40 289 l-6 135 -44 0 -43 0 0 -160 c0 -190 -9 -222
-67 -246 -65 -28 -141 0 -163 60 -5 16 -10 100 -10 187 l0 159 -46 0 -45 0 3
-188z"/>
<path d="M6560 2361 l0 -251 50 0 51 0 -2 161 c0 143 3 182 14 168 2 -2 35
-45 73 -94 199 -261 175 -235 219 -232 l40 2 0 73 c0 39 -2 151 -3 247 l-2
175 -45 0 -45 0 0 -162 -1 -163 -37 44 c-20 24 -78 96 -128 160 l-90 116 -47
3 -47 3 0 -250z"/>
<path d="M7190 2360 l0 -250 100 0 c54 0 122 5 150 11 195 42 264 270 125 413
-58 60 -114 76 -262 76 l-113 0 0 -250z m273 142 c52 -30 77 -76 77 -142 0
-107 -62 -160 -187 -160 l-73 0 0 158 c0 87 3 162 8 166 13 14 142 -2 175 -22z"/>
</g>
</svg>
